<!-- <svg width="123" height="109" viewBox="0 0 123 109" fill="none" xmlns="http://www.w3.org/2000/svg">
<path d="M1.44347 76.6088H2.09303C2.3336 76.6088 2.48757 76.8253 2.55494 77.2583C2.63192 77.6914 3.18525 78.6056 4.21492 80.0009C5.25422 81.3963 6.83241 82.1421 8.94949 82.2383C11.0185 82.2383 12.4234 81.8293 13.1644 81.0113C13.915 80.1934 14.2903 79.1108 14.2903 77.7635C14.1941 75.454 12.3176 73.7218 8.6608 72.5671C5.00402 71.4123 3.17563 69.2471 3.17563 66.0715C3.17563 64.2912 3.7049 62.8622 4.76344 61.7844C5.82198 60.697 7.02487 60.1532 8.37211 60.1532C10.2967 60.1532 11.567 60.4997 12.1829 61.1925C12.4331 61.4139 12.6544 61.5245 12.8469 61.5245C13.0393 61.5245 13.1837 61.2599 13.2799 60.7306C13.2799 60.4901 13.4724 60.3698 13.8573 60.3698H14.4347V66.7932H13.7129C13.4242 66.7932 13.1837 66.1196 12.9912 64.7723C12.7987 63.4251 12.3657 62.4869 11.6921 61.9576C11.0185 61.4283 10.008 61.1637 8.6608 61.1637C7.60226 61.1637 6.71212 61.5486 5.99039 62.3184C5.26865 63.0883 4.90779 64.2431 4.90779 65.7828C4.90779 68.0923 6.78429 69.8245 10.5373 70.9792C14.2903 72.134 16.1668 74.203 16.1668 77.1862C16.1668 78.3409 15.9744 79.3032 15.5894 80.0731C15.2045 80.8429 14.5068 81.5647 13.4964 82.2383C12.486 82.9119 10.9703 83.2487 8.94949 83.2487C7.21733 83.2487 5.82198 82.782 4.76344 81.8485C3.7049 80.9055 3.12751 80.434 3.03128 80.434C2.83882 80.434 2.69447 81.1797 2.59824 82.6713C2.59824 82.9119 2.40578 83.0322 2.02085 83.0322H1.44347V76.6088ZM40.1192 60.875V61.3802C40.1192 61.717 39.9989 61.8854 39.7584 61.8854H38.6758V81.5166H39.7584C39.9989 81.5166 40.1192 81.685 40.1192 82.0218V82.527H35.0671V82.0218C35.0671 81.685 35.1874 81.5166 35.428 81.5166H36.5106V62.4484L28.1385 73.2888L21.2098 64.8301V81.5166H22.2924C22.533 81.5166 22.6533 81.685 22.6533 82.0218V82.527H18.7559V82.0218C18.7559 81.685 18.8762 81.5166 19.1168 81.5166H20.1994V63.0402L19.6653 62.1741L19.1168 61.8854C18.8762 61.8854 18.7559 61.717 18.7559 61.3802V60.875H20.6324L28.788 70.9792L36.6549 60.875H40.1192ZM56.276 70.9792L52.855 62.3618L49.2608 70.9792H56.276ZM56.6802 71.9897H48.8422L45.0026 81.5166H46.0563C46.2969 81.5166 46.4171 81.685 46.4171 82.0218V82.527H42.1589V82.0218C42.1589 81.685 42.2792 81.5166 42.5198 81.5166H43.7179L52.4364 59.8646C52.5519 59.5374 52.7684 59.3257 53.086 59.2294L53.6778 59.1428C53.9857 59.1428 54.183 59.2872 54.2696 59.5759L63.0892 81.5166H64.244C64.4845 81.5166 64.6048 81.685 64.6048 82.0218V82.527H60.8518L56.6802 71.9897ZM70.0864 60.875L73.9838 60.8605C78.9878 60.8702 81.5139 62.7996 81.562 66.6488C81.3695 70.2575 78.8916 72.134 74.1281 72.2784C76.5051 72.5574 78.3046 74.2222 79.5267 77.2728C80.7488 80.3233 82.1538 81.8485 83.7416 81.8485C83.9052 81.8485 84.0736 81.8245 84.2468 81.7764C84.4201 81.7283 84.6125 81.7042 84.8242 81.7042C84.9686 81.7042 85.0696 81.7186 85.1274 81.7475C85.1947 81.7764 85.2284 81.8052 85.2284 81.8341C85.2284 81.9111 84.9638 82.0843 84.4345 82.3538C83.9052 82.6136 83.3375 82.7435 82.7312 82.7435C80.6911 82.7435 78.9349 81.2567 77.4626 78.2832C75.6727 74.7226 73.7192 72.9375 71.6021 72.9279C71.1209 72.9279 70.6638 72.9472 70.2308 72.9857V81.5166H71.3134C71.554 81.5166 71.6743 81.685 71.6743 82.0218V82.527H66.6221V82.0218C66.6221 81.685 66.7424 81.5166 66.983 81.5166H68.0656V61.8854H66.983C66.7424 61.8854 66.6221 61.717 66.6221 61.3802V60.875H70.0864ZM70.2308 71.1525L73.6951 71.1236C77.4385 70.8734 79.3102 69.5262 79.3102 67.0819V66.389C79.3102 63.4347 77.5828 61.9335 74.1281 61.8854H70.2308V71.1525ZM90.1172 82.527V82.0218C90.1172 81.685 90.2375 81.5166 90.4781 81.5166H91.5607V61.8854L86.8405 61.9287L85.4115 63.5021C85.3056 63.6368 85.2046 63.709 85.1084 63.7186C85.041 63.7186 84.9207 63.6801 84.7475 63.6031C84.6032 63.555 84.531 63.4492 84.531 63.2856L84.5454 63.1268L85.4259 60.6873C85.4837 60.5815 85.5655 60.5285 85.6713 60.5285C85.8253 60.5767 86.0466 60.6921 86.3353 60.875H99.2688C99.5575 60.6921 99.7788 60.5767 99.9328 60.5285C100.039 60.5285 100.12 60.5815 100.178 60.6873L101.059 63.1268L101.073 63.2856C101.073 63.4492 101.001 63.555 100.857 63.6031C100.683 63.6801 100.563 63.7186 100.496 63.7186C100.399 63.709 100.298 63.6368 100.193 63.5021L98.7491 61.9287L94.0146 61.8854V81.5166H95.0972C95.3377 81.5166 95.458 81.685 95.458 82.0218V82.527H90.1172Z" fill="#666F74"/>
<path d="M100.684 45.9665C100.59 46.3146 100.337 46.9441 99.9255 47.8549C99.4697 48.8085 98.9478 49.7828 98.3599 50.7776C97.7292 51.7279 97.0563 52.5899 96.3415 53.3636C95.5392 54.1355 94.6784 54.5345 93.7592 54.5606C92.3094 52.6078 91.5346 50.8211 91.4345 49.2005C91.3345 47.5799 91.6453 46.2079 92.3669 45.0844C93.0457 43.9163 93.9817 43.0156 95.1751 42.3824C96.3239 41.7921 97.4231 41.5071 98.4726 41.5273C99.4347 41.5458 100.194 41.8886 100.75 42.5555C101.261 43.2653 101.239 44.4023 100.684 45.9665Z" fill="#873284"/>
<path d="M114.046 54.4393C113.766 54.6664 113.192 55.0287 112.326 55.5263C111.398 56.0325 110.404 56.5167 109.345 56.979C108.277 57.3801 107.227 57.6849 106.195 57.8935C105.092 58.0496 104.161 57.8691 103.4 57.352C103.369 54.9201 103.787 53.018 104.654 51.6456C105.522 50.2733 106.577 49.343 107.82 48.8547C109.054 48.3052 110.34 48.1231 111.679 48.3085C112.956 48.5026 114.014 48.9151 114.853 49.546C115.622 50.1243 116.036 50.8465 116.096 51.7126C116.095 52.5874 115.412 53.4963 114.046 54.4393Z" fill="#1A93D7"/>
<path d="M116.763 69.6722C116.404 69.7132 115.726 69.7107 114.728 69.6647C113.673 69.5931 112.575 69.4678 111.434 69.2887C110.318 69.0533 109.268 68.7462 108.285 68.3674C107.272 67.9068 106.583 67.2541 106.219 66.4095C107.499 64.3412 108.874 62.9615 110.343 62.2703C111.812 61.579 113.202 61.3614 114.512 61.6172C115.848 61.8168 117.031 62.3542 118.06 63.2295C119.033 64.0793 119.703 64.9956 120.072 65.9784C120.41 66.8794 120.372 67.7113 119.957 68.4741C119.486 69.2113 118.421 69.6107 116.763 69.6722Z" fill="#1DAE60"/>
<path d="M107.2 82.875C106.88 82.7095 106.318 82.3297 105.514 81.7355C104.678 81.0888 103.836 80.3732 102.988 79.5886C102.192 78.7716 101.491 77.9321 100.886 77.0701C100.3 76.123 100.092 75.1975 100.26 74.2935C102.475 73.2882 104.385 72.9077 105.99 73.1517C107.595 73.3958 108.871 73.9891 109.817 74.9314C110.816 75.8413 111.498 76.9462 111.866 78.2463C112.2 79.4938 112.247 80.6284 112.006 81.65C111.785 82.5865 111.29 83.2561 110.521 83.6588C109.719 84.0089 108.612 83.7476 107.2 82.875Z" fill="#E3F41D"/>
</svg> -->

<svg width="652" height="563" viewBox="0 0 652 563" fill="none" xmlns="http://www.w3.org/2000/svg">
<path d="M59.57 280.491C56.994 279.418 54.1497 278.559 51.037 277.915C48.0317 277.271 44.0603 276.949 39.123 276.949C33.649 276.949 29.302 278.344 26.082 281.135C22.862 283.818 21.252 286.877 21.252 290.312C21.252 293.747 22.7547 296.859 25.76 299.65C28.7653 302.441 34.615 304.856 43.309 306.895C51.037 308.612 56.994 310.813 61.18 313.496C65.4733 316.179 68.4787 319.238 70.196 322.673C71.9133 326 72.772 329.703 72.772 333.782C72.772 337.753 71.7523 341.564 69.713 345.213C67.781 348.755 64.561 351.707 60.053 354.068C55.6523 356.322 49.749 357.449 42.343 357.449C31.8243 357.449 22.1107 354.98 13.202 350.043C11.8067 349.184 11.109 348.004 11.109 346.501C11.109 345.535 11.4847 344.623 12.236 343.764C12.9873 342.905 13.9533 342.476 15.134 342.476C15.778 342.476 16.422 342.637 17.066 342.959C24.6867 347.252 33.1123 349.399 42.343 349.399C49.6417 349.399 55.1693 347.896 58.926 344.891C62.79 341.778 64.722 338.075 64.722 333.782C64.722 329.274 62.8973 325.517 59.248 322.512C55.706 319.507 49.8563 316.984 41.699 314.945C34.0783 313.013 28.175 310.813 23.989 308.344C19.9103 305.875 17.066 303.085 15.456 299.972C13.9533 296.859 13.202 293.425 13.202 289.668C13.202 286.233 14.168 282.96 16.1 279.847C18.1393 276.627 21.091 273.997 24.955 271.958C28.819 269.919 33.5417 268.899 39.123 268.899C45.0263 268.899 49.749 269.382 53.291 270.348C56.9403 271.207 60.7507 272.441 64.722 274.051C66.4393 274.695 67.298 275.929 67.298 277.754C67.298 278.827 66.8687 279.793 66.01 280.652C65.2587 281.403 64.3463 281.779 63.273 281.779C63.0583 281.779 62.7363 281.725 62.307 281.618C61.8777 281.403 60.9653 281.028 59.57 280.491ZM199.542 356.322C198.576 356.322 197.717 356 196.966 355.356C196.215 354.712 195.732 353.853 195.517 352.78C194.766 346.662 193.8 339.739 192.619 332.011C191.438 324.283 190.15 316.287 188.755 308.022C187.36 299.757 185.911 291.761 184.408 284.033C180.866 291.224 177.217 298.738 173.46 306.573C169.811 314.301 166.322 321.922 162.995 329.435C159.668 336.948 156.662 343.979 153.979 350.526C153.228 352.351 152.047 353.263 150.437 353.263C148.505 353.263 147.217 352.512 146.573 351.009C143.46 344.354 140.026 337.163 136.269 329.435C132.512 321.6 128.756 313.764 124.999 305.929C121.35 298.094 117.915 290.849 114.695 284.194C113.836 289.883 112.924 295.893 111.958 302.226C111.099 308.559 110.241 314.838 109.382 321.063C108.631 327.288 107.879 333.138 107.128 338.612C106.484 344.086 105.947 348.809 105.518 352.78C105.411 353.746 104.928 354.605 104.069 355.356C103.318 356 102.405 356.322 101.332 356.322C100.259 356.322 99.3462 355.946 98.5949 355.195C97.8436 354.336 97.4679 353.317 97.4679 352.136C97.4679 351.921 97.6289 350.365 97.9509 347.467C98.3802 343.925 98.9706 339.095 99.7219 332.977C100.473 326.859 101.332 320.204 102.298 313.013C103.264 305.714 104.284 298.469 105.357 291.278C106.43 284.087 107.45 277.593 108.416 271.797C108.631 270.831 109.114 270.026 109.865 269.382C110.724 268.738 111.636 268.416 112.602 268.416C113.89 268.416 114.856 268.845 115.5 269.704C116.573 270.777 117.432 272.065 118.076 273.568C121.081 279.579 124.355 286.341 127.897 293.854C131.546 301.26 135.303 308.881 139.167 316.716C143.031 324.551 146.68 332.065 150.115 339.256C153.228 332.172 156.555 324.659 160.097 316.716C163.746 308.666 167.449 300.67 171.206 292.727C175.07 284.677 178.827 277.217 182.476 270.348C183.335 268.953 184.569 268.255 186.179 268.255C187.145 268.255 188.057 268.577 188.916 269.221C189.775 269.758 190.258 270.509 190.365 271.475C191.653 277.808 192.887 284.57 194.068 291.761C195.356 298.845 196.537 305.661 197.61 312.208C198.683 318.755 199.542 324.498 200.186 329.435C200.937 334.265 201.474 337.592 201.796 339.417C202.655 344.676 203.138 348.057 203.245 349.56C203.46 351.063 203.567 351.975 203.567 352.297C203.567 353.37 203.191 354.336 202.44 355.195C201.689 355.946 200.723 356.322 199.542 356.322ZM240.486 262.942C240.808 264.015 241.077 265.357 241.291 266.967C241.506 268.577 241.613 270.294 241.613 272.119C241.613 280.706 239.145 288.326 234.207 294.981C233.456 296.054 232.383 296.591 230.987 296.591C229.914 296.591 228.948 296.215 228.089 295.464C227.338 294.605 226.962 293.639 226.962 292.566C226.962 291.707 227.231 290.902 227.767 290.151C231.631 284.892 233.563 278.881 233.563 272.119C233.563 269.328 233.402 267.557 233.08 266.806C232.758 266.055 232.597 265.25 232.597 264.391C232.597 263.318 232.973 262.352 233.724 261.493C234.583 260.634 235.495 260.205 236.461 260.205C238.501 260.205 239.842 261.117 240.486 262.942ZM321.39 356C319.565 356 318.331 355.141 317.687 353.424C316.614 350.526 315.326 347.306 313.823 343.764C312.32 340.222 310.71 336.519 308.993 332.655H263.591C262.088 336.519 260.639 340.222 259.244 343.764C257.956 347.199 256.775 350.365 255.702 353.263C255.38 354.122 254.843 354.819 254.092 355.356C253.341 355.785 252.536 356 251.677 356C250.711 356 249.799 355.624 248.94 354.873C248.189 354.014 247.813 352.995 247.813 351.814C247.813 351.492 247.867 351.063 247.974 350.526C248.189 349.882 248.672 348.648 249.423 346.823C251.248 341.993 253.394 336.465 255.863 330.24C258.439 324.015 261.176 317.521 264.074 310.759C266.972 303.997 269.924 297.181 272.929 290.312C275.934 283.443 278.832 276.949 281.623 270.831C282.374 269.221 283.662 268.416 285.487 268.416H286.131C288.063 268.416 289.351 269.167 289.995 270.67C292.893 276.895 295.952 283.604 299.172 290.795C302.499 297.986 305.719 305.124 308.832 312.208C311.945 319.185 314.789 325.732 317.365 331.85C319.941 337.861 322.034 342.852 323.644 346.823C324.503 348.755 324.986 350.043 325.093 350.687C325.308 351.331 325.415 351.76 325.415 351.975C325.415 353.048 324.986 354.014 324.127 354.873C323.376 355.624 322.463 356 321.39 356ZM305.612 324.605C302.499 317.414 299.226 310.061 295.791 302.548C292.356 295.035 289.029 287.897 285.809 281.135C282.804 288.004 279.637 295.196 276.31 302.709C273.09 310.115 269.977 317.414 266.972 324.605H305.612ZM408.182 356C407.001 356 405.981 355.517 405.123 354.551L378.88 323.961H357.306V351.975C357.306 353.048 356.93 354.014 356.179 354.873C355.427 355.624 354.461 356 353.281 356C352.207 356 351.241 355.624 350.383 354.873C349.631 354.014 349.256 353.048 349.256 351.975V273.89C349.256 272.709 349.631 271.743 350.383 270.992C351.241 270.241 352.207 269.865 353.281 269.865H376.948C383.28 269.865 388.701 271.046 393.209 273.407C397.824 275.768 401.366 278.988 403.835 283.067C406.411 287.038 407.699 291.654 407.699 296.913C407.699 302.709 406.089 307.968 402.869 312.691C399.756 317.414 394.872 320.687 388.218 322.512L411.241 349.399C411.885 350.043 412.207 350.902 412.207 351.975C412.207 352.941 411.831 353.853 411.08 354.712C410.328 355.571 409.362 356 408.182 356ZM357.306 277.915V315.911H376.948C384.354 315.911 389.989 314.086 393.853 310.437C397.717 306.68 399.649 302.172 399.649 296.913C399.649 291.224 397.502 286.663 393.209 283.228C389.023 279.686 383.602 277.915 376.948 277.915H357.306ZM464.212 356C463.139 356 462.173 355.624 461.314 354.873C460.563 354.014 460.187 353.048 460.187 351.975V277.915H430.08C429.007 277.915 428.041 277.539 427.182 276.788C426.431 275.929 426.055 274.963 426.055 273.89C426.055 272.709 426.431 271.743 427.182 270.992C428.041 270.241 429.007 269.865 430.08 269.865H498.988C500.169 269.865 501.135 270.241 501.886 270.992C502.637 271.743 503.013 272.709 503.013 273.89C503.013 274.963 502.637 275.929 501.886 276.788C501.135 277.539 500.169 277.915 498.988 277.915H468.237V351.975C468.237 353.048 467.861 354.014 467.11 354.873C466.359 355.624 465.393 356 464.212 356Z" fill="#929292"/>
<path d="M534.453 185.246C533.957 187.078 532.627 190.39 530.463 195.183C528.064 200.202 525.318 205.329 522.224 210.564C518.904 215.565 515.364 220.102 511.602 224.173C507.379 228.236 502.85 230.335 498.012 230.472C490.383 220.196 486.305 210.793 485.779 202.265C485.252 193.736 486.888 186.516 490.686 180.603C494.257 174.456 499.183 169.717 505.463 166.384C511.509 163.278 517.294 161.778 522.817 161.884C527.88 161.982 531.874 163.785 534.799 167.295C537.49 171.03 537.374 177.014 534.453 185.246Z" fill="#8ADAFF"/>
<path d="M604.249 228.761C602.774 229.956 599.756 231.863 595.195 234.481C590.312 237.145 585.084 239.693 579.511 242.126C573.892 244.236 568.365 245.841 562.932 246.939C557.13 247.76 552.229 246.81 548.227 244.089C548.059 231.291 550.258 221.281 554.825 214.059C559.392 206.837 564.945 201.941 571.486 199.372C577.98 196.48 584.749 195.522 591.791 196.497C598.511 197.518 604.078 199.689 608.494 203.009C612.541 206.053 614.723 209.854 615.039 214.411C615.033 219.015 611.437 223.798 604.249 228.761Z" fill="#F8B9E4"/>
<path d="M618.701 307.85C616.816 308.065 613.246 308.052 607.993 307.81C602.443 307.433 596.664 306.774 590.656 305.831C584.783 304.593 579.26 302.977 574.088 300.983C568.753 298.559 565.13 295.124 563.217 290.679C569.951 279.795 577.184 272.534 584.915 268.897C592.647 265.259 599.961 264.114 606.858 265.46C613.89 266.51 620.113 269.339 625.528 273.945C630.647 278.417 634.177 283.239 636.117 288.411C637.895 293.152 637.694 297.53 635.512 301.545C633.033 305.424 627.43 307.526 618.701 307.85Z" fill="#FFC377"/>
<path d="M568.007 382.209C566.321 381.338 563.363 379.339 559.135 376.213C554.735 372.809 550.303 369.043 545.838 364.914C541.65 360.615 537.962 356.197 534.776 351.661C531.695 346.676 530.598 341.806 531.485 337.048C543.14 331.758 553.191 329.756 561.638 331.04C570.086 332.325 576.799 335.446 581.777 340.406C587.033 345.194 590.627 351.009 592.559 357.85C594.32 364.415 594.567 370.386 593.298 375.763C592.134 380.691 589.529 384.215 585.481 386.334C581.262 388.176 575.437 386.801 568.007 382.209Z" fill="#F5FF83"/>
</svg>
