<svg width="98" height="75" viewBox="0 0 98 75" fill="none" xmlns="http://www.w3.org/2000/svg">
<path d="M80.4377 17.3941C80.3627 17.6714 80.1613 18.1729 79.8337 18.8984C79.4706 19.6581 79.0549 20.4342 78.5865 21.2267C78.0841 21.9837 77.5481 22.6704 76.9786 23.2867C76.3395 23.9016 75.6538 24.2195 74.9215 24.2402C73.7666 22.6846 73.1494 21.2613 73.0697 19.9703C72.99 18.6794 73.2376 17.5864 73.8125 16.6914C74.3531 15.7609 75.0988 15.0434 76.0494 14.539C76.9646 14.0687 77.8402 13.8417 78.6763 13.8578C79.4427 13.8725 80.0473 14.1456 80.4901 14.6768C80.8974 15.2423 80.8799 16.148 80.4377 17.3941Z" fill="#873284"/>
<path d="M91.1689 24.3218C90.9457 24.5027 90.4889 24.7913 89.7985 25.1876C89.0593 25.5909 88.2679 25.9766 87.4242 26.3449C86.5737 26.6644 85.7371 26.9072 84.9146 27.0734C84.0364 27.1977 83.2944 27.0539 82.6887 26.642C82.6633 24.7047 82.9962 23.1895 83.6875 22.0963C84.3788 21.0031 85.2194 20.262 86.2094 19.873C87.1926 19.4352 88.2171 19.2902 89.2831 19.4379C90.3004 19.5925 91.1432 19.9211 91.8115 20.4236C92.4242 20.8844 92.7544 21.4597 92.8023 22.1496C92.8015 22.8465 92.257 23.5705 91.1689 24.3218Z" fill="#1A93D7"/>
<path d="M93.3075 36.6348C93.0221 36.6674 92.4817 36.6654 91.6865 36.6288C90.8464 36.5718 89.9717 36.4719 89.0623 36.3293C88.1732 36.1417 87.3372 35.8971 86.5542 35.5954C85.7467 35.2284 85.1982 34.7085 84.9086 34.0356C85.928 32.388 87.0229 31.2889 88.1932 30.7383C89.3636 30.1877 90.4708 30.0143 91.5148 30.2181C92.5792 30.3771 93.5212 30.8052 94.341 31.5025C95.1158 32.1794 95.6501 32.9093 95.9438 33.6923C96.213 34.41 96.1825 35.0727 95.8522 35.6803C95.477 36.2676 94.6288 36.5858 93.3075 36.6348Z" fill="#1DAE60"/>
<path d="M85.5662 47.293C85.3109 47.1611 84.8632 46.8586 84.2231 46.3853C83.5571 45.8701 82.8862 45.3 82.2103 44.675C81.5763 44.0242 81.0182 43.3554 80.5359 42.6687C80.0695 41.9143 79.9035 41.177 80.0377 40.4568C81.8019 39.656 83.3234 39.3529 84.6021 39.5473C85.8808 39.7418 86.897 40.2143 87.6506 40.965C88.4461 41.6898 88.9902 42.57 89.2827 43.6057C89.5493 44.5995 89.5866 45.5033 89.3945 46.3171C89.2184 47.0632 88.824 47.5966 88.2112 47.9174C87.5726 48.1962 86.6909 47.9881 85.5662 47.293Z" fill="#E3F41D"/>
<path d="M51.6269 32.3262C51.7813 32.2999 51.9398 32.286 52.1011 32.286H73.8975C74.0588 32.286 74.2173 32.2999 74.3717 32.3262M51.6269 32.3262C50.8202 32.4665 50.0952 32.9582 49.6093 33.6947C49.1234 34.4312 48.9157 35.3531 49.0312 36.2604L50.2126 45.5464C50.3181 46.3762 50.6866 47.1354 51.2506 47.6846C51.8145 48.2339 52.5359 48.5363 53.2825 48.5365H72.7175C73.4641 48.5363 74.1855 48.2339 74.7494 47.6846C75.3134 47.1354 75.6819 46.3762 75.7874 45.5464L76.9688 36.2604C77.0843 35.3531 76.8766 34.4312 76.3907 33.6947C75.9048 32.9582 75.1798 32.4665 74.3731 32.3262M51.6283 32.3262V26.4823C51.6283 25.559 51.9549 24.6735 52.5362 24.0205C53.1176 23.3675 53.9061 23.0004 54.7285 23H60.0756C60.6238 23.0005 61.1494 23.2455 61.5368 23.681L64.4619 26.962C64.8493 27.3975 65.3748 27.6425 65.9231 27.643H71.2701C72.0927 27.643 72.8816 28.0099 73.4633 28.6629C74.0449 29.316 74.3717 30.2017 74.3717 31.1253V32.3262" stroke="#666F74" stroke-width="1.5" stroke-linecap="round" stroke-linejoin="round"/>
</svg>
