<svg width="123" height="109" viewBox="0 0 123 109" fill="none" xmlns="http://www.w3.org/2000/svg">
<path d="M1.44347 76.6088H2.09303C2.3336 76.6088 2.48757 76.8253 2.55494 77.2583C2.63192 77.6914 3.18525 78.6056 4.21492 80.0009C5.25422 81.3963 6.83241 82.1421 8.94949 82.2383C11.0185 82.2383 12.4234 81.8293 13.1644 81.0113C13.915 80.1934 14.2903 79.1108 14.2903 77.7635C14.1941 75.454 12.3176 73.7218 8.6608 72.5671C5.00402 71.4123 3.17563 69.2471 3.17563 66.0715C3.17563 64.2912 3.7049 62.8622 4.76344 61.7844C5.82198 60.697 7.02487 60.1532 8.37211 60.1532C10.2967 60.1532 11.567 60.4997 12.1829 61.1925C12.4331 61.4139 12.6544 61.5245 12.8469 61.5245C13.0393 61.5245 13.1837 61.2599 13.2799 60.7306C13.2799 60.4901 13.4724 60.3698 13.8573 60.3698H14.4347V66.7932H13.7129C13.4242 66.7932 13.1837 66.1196 12.9912 64.7723C12.7987 63.4251 12.3657 62.4869 11.6921 61.9576C11.0185 61.4283 10.008 61.1637 8.6608 61.1637C7.60226 61.1637 6.71212 61.5486 5.99039 62.3184C5.26865 63.0883 4.90779 64.2431 4.90779 65.7828C4.90779 68.0923 6.78429 69.8245 10.5373 70.9792C14.2903 72.134 16.1668 74.203 16.1668 77.1862C16.1668 78.3409 15.9744 79.3032 15.5894 80.0731C15.2045 80.8429 14.5068 81.5647 13.4964 82.2383C12.486 82.9119 10.9703 83.2487 8.94949 83.2487C7.21733 83.2487 5.82198 82.782 4.76344 81.8485C3.7049 80.9055 3.12751 80.434 3.03128 80.434C2.83882 80.434 2.69447 81.1797 2.59824 82.6713C2.59824 82.9119 2.40578 83.0322 2.02085 83.0322H1.44347V76.6088ZM40.1192 60.875V61.3802C40.1192 61.717 39.9989 61.8854 39.7584 61.8854H38.6758V81.5166H39.7584C39.9989 81.5166 40.1192 81.685 40.1192 82.0218V82.527H35.0671V82.0218C35.0671 81.685 35.1874 81.5166 35.428 81.5166H36.5106V62.4484L28.1385 73.2888L21.2098 64.8301V81.5166H22.2924C22.533 81.5166 22.6533 81.685 22.6533 82.0218V82.527H18.7559V82.0218C18.7559 81.685 18.8762 81.5166 19.1168 81.5166H20.1994V63.0402L19.6653 62.1741L19.1168 61.8854C18.8762 61.8854 18.7559 61.717 18.7559 61.3802V60.875H20.6324L28.788 70.9792L36.6549 60.875H40.1192ZM56.276 70.9792L52.855 62.3618L49.2608 70.9792H56.276ZM56.6802 71.9897H48.8422L45.0026 81.5166H46.0563C46.2969 81.5166 46.4171 81.685 46.4171 82.0218V82.527H42.1589V82.0218C42.1589 81.685 42.2792 81.5166 42.5198 81.5166H43.7179L52.4364 59.8646C52.5519 59.5374 52.7684 59.3257 53.086 59.2294L53.6778 59.1428C53.9857 59.1428 54.183 59.2872 54.2696 59.5759L63.0892 81.5166H64.244C64.4845 81.5166 64.6048 81.685 64.6048 82.0218V82.527H60.8518L56.6802 71.9897ZM70.0864 60.875L73.9838 60.8605C78.9878 60.8702 81.5139 62.7996 81.562 66.6488C81.3695 70.2575 78.8916 72.134 74.1281 72.2784C76.5051 72.5574 78.3046 74.2222 79.5267 77.2728C80.7488 80.3233 82.1538 81.8485 83.7416 81.8485C83.9052 81.8485 84.0736 81.8245 84.2468 81.7764C84.4201 81.7283 84.6125 81.7042 84.8242 81.7042C84.9686 81.7042 85.0696 81.7186 85.1274 81.7475C85.1947 81.7764 85.2284 81.8052 85.2284 81.8341C85.2284 81.9111 84.9638 82.0843 84.4345 82.3538C83.9052 82.6136 83.3375 82.7435 82.7312 82.7435C80.6911 82.7435 78.9349 81.2567 77.4626 78.2832C75.6727 74.7226 73.7192 72.9375 71.6021 72.9279C71.1209 72.9279 70.6638 72.9472 70.2308 72.9857V81.5166H71.3134C71.554 81.5166 71.6743 81.685 71.6743 82.0218V82.527H66.6221V82.0218C66.6221 81.685 66.7424 81.5166 66.983 81.5166H68.0656V61.8854H66.983C66.7424 61.8854 66.6221 61.717 66.6221 61.3802V60.875H70.0864ZM70.2308 71.1525L73.6951 71.1236C77.4385 70.8734 79.3102 69.5262 79.3102 67.0819V66.389C79.3102 63.4347 77.5828 61.9335 74.1281 61.8854H70.2308V71.1525ZM90.1172 82.527V82.0218C90.1172 81.685 90.2375 81.5166 90.4781 81.5166H91.5607V61.8854L86.8405 61.9287L85.4115 63.5021C85.3056 63.6368 85.2046 63.709 85.1084 63.7186C85.041 63.7186 84.9207 63.6801 84.7475 63.6031C84.6032 63.555 84.531 63.4492 84.531 63.2856L84.5454 63.1268L85.4259 60.6873C85.4837 60.5815 85.5655 60.5285 85.6713 60.5285C85.8253 60.5767 86.0466 60.6921 86.3353 60.875H99.2688C99.5575 60.6921 99.7788 60.5767 99.9328 60.5285C100.039 60.5285 100.12 60.5815 100.178 60.6873L101.059 63.1268L101.073 63.2856C101.073 63.4492 101.001 63.555 100.857 63.6031C100.683 63.6801 100.563 63.7186 100.496 63.7186C100.399 63.709 100.298 63.6368 100.193 63.5021L98.7491 61.9287L94.0146 61.8854V81.5166H95.0972C95.3377 81.5166 95.458 81.685 95.458 82.0218V82.527H90.1172Z" fill="#666F74"/>
<path d="M100.684 45.9665C100.59 46.3146 100.337 46.9441 99.9255 47.8549C99.4697 48.8085 98.9478 49.7828 98.3599 50.7776C97.7292 51.7279 97.0563 52.5899 96.3415 53.3636C95.5392 54.1355 94.6784 54.5345 93.7592 54.5606C92.3094 52.6078 91.5346 50.8211 91.4345 49.2005C91.3345 47.5799 91.6453 46.2079 92.3669 45.0844C93.0457 43.9163 93.9817 43.0156 95.1751 42.3824C96.3239 41.7921 97.4231 41.5071 98.4726 41.5273C99.4347 41.5458 100.194 41.8886 100.75 42.5555C101.261 43.2653 101.239 44.4023 100.684 45.9665Z" fill="#873284"/>
<path d="M114.046 54.4393C113.766 54.6664 113.192 55.0287 112.326 55.5263C111.398 56.0325 110.404 56.5167 109.345 56.979C108.277 57.3801 107.227 57.6849 106.195 57.8935C105.092 58.0496 104.161 57.8691 103.4 57.352C103.369 54.9201 103.787 53.018 104.654 51.6456C105.522 50.2733 106.577 49.343 107.82 48.8547C109.054 48.3052 110.34 48.1231 111.679 48.3085C112.956 48.5026 114.014 48.9151 114.853 49.546C115.622 50.1243 116.036 50.8465 116.096 51.7126C116.095 52.5874 115.412 53.4963 114.046 54.4393Z" fill="#1A93D7"/>
<path d="M116.763 69.6722C116.404 69.7132 115.726 69.7107 114.728 69.6647C113.673 69.5931 112.575 69.4678 111.434 69.2887C110.318 69.0533 109.268 68.7462 108.285 68.3674C107.272 67.9068 106.583 67.2541 106.219 66.4095C107.499 64.3412 108.874 62.9615 110.343 62.2703C111.812 61.579 113.202 61.3614 114.512 61.6172C115.848 61.8168 117.031 62.3542 118.06 63.2295C119.033 64.0793 119.703 64.9956 120.072 65.9784C120.41 66.8794 120.372 67.7113 119.957 68.4741C119.486 69.2113 118.421 69.6107 116.763 69.6722Z" fill="#1DAE60"/>
<path d="M107.2 82.875C106.88 82.7095 106.318 82.3297 105.514 81.7355C104.678 81.0888 103.836 80.3732 102.988 79.5886C102.192 78.7716 101.491 77.9321 100.886 77.0701C100.3 76.123 100.092 75.1975 100.26 74.2935C102.475 73.2882 104.385 72.9077 105.99 73.1517C107.595 73.3958 108.871 73.9891 109.817 74.9314C110.816 75.8413 111.498 76.9462 111.866 78.2463C112.2 79.4938 112.247 80.6284 112.006 81.65C111.785 82.5865 111.29 83.2561 110.521 83.6588C109.719 84.0089 108.612 83.7476 107.2 82.875Z" fill="#E3F41D"/>
</svg>
